<svg xmlns="http://www.w3.org/2000/svg" viewBox="0 0 64 64" fill="none">
  <defs>
    <linearGradient id="bgG" x1="0" y1="0" x2="64" y2="64" gradientUnits="userSpaceOnUse">
      <stop offset="0" stop-color="#0C1020"/>
      <stop offset="1" stop-color="#131925"/>
    </linearGradient>
    <linearGradient id="starG" x1="0" y1="0" x2="64" y2="64" gradientUnits="userSpaceOnUse">
      <stop offset="0%" stop-color="#4285F4"/>
      <stop offset="55%" stop-color="#00BCD4"/>
      <stop offset="100%" stop-color="#7C3AED"/>
    </linearGradient>
    <linearGradient id="starG2" x1="0" y1="0" x2="0" y2="64" gradientUnits="userSpaceOnUse">
      <stop offset="0%" stop-color="#4285F4"/>
      <stop offset="100%" stop-color="#00BCD4"/>
    </linearGradient>
  </defs>
  <rect x="2" y="2" width="60" height="60" rx="16" fill="url(#bgG)"/>
  <!-- Main Gemini 4-pointed sparkle star -->
  <path d="M32 7 C32 7 29.2 20.5 29.2 32 C29.2 32 20.5 29.2 7 32 C7 32 20.5 34.8 29.2 32 C29.2 32 29.2 43.5 32 57 C32 57 34.8 43.5 34.8 32 C34.8 32 43.5 34.8 57 32 C57 32 43.5 29.2 34.8 32 C34.8 32 34.8 20.5 32 7Z" fill="url(#starG2)"/>
  <!-- Small accent sparkle top-right -->
  <path d="M48 12 C48 12 46.8 16.6 46.8 19 C46.8 19 44.2 17.8 38 19 C38 19 44.2 20.2 46.8 19 C46.8 19 46.8 21.4 48 26 C48 26 49.2 21.4 49.2 19 C49.2 19 51.8 20.2 58 19 C58 19 51.8 17.8 49.2 19 C49.2 19 49.2 16.6 48 12Z" fill="url(#starG)" opacity="0.75"/>
</svg>
